<?xml version="1.0" standalone="no"?>
<!DOCTYPE svg PUBLIC "-//W3C//DTD SVG 20010904//EN"
 "http://www.w3.org/TR/2001/REC-SVG-20010904/DTD/svg10.dtd">
<svg version="1.0" xmlns="http://www.w3.org/2000/svg"
 width="605.000000pt" height="412.000000pt" viewBox="0 0 605.000000 412.000000"
 preserveAspectRatio="xMidYMid meet">

<g transform="translate(0.000000,412.000000) scale(0.100000,-0.100000)"
fill="#000000" stroke="none">
<path d="M1941 3168 c-5 -13 -45 -115 -89 -228 -102 -261 -671 -1720 -894
-2290 -94 -239 -174 -445 -179 -457 -8 -22 -6 -23 40 -23 l48 0 183 473 c141
365 823 2118 864 2222 11 26 -2 59 247 -613 l209 -564 0 -759 0 -759 465 0
c256 0 465 2 465 4 0 3 -29 82 -64 178 -97 262 -560 1518 -807 2188 -121 327
-224 607 -230 623 l-11 27 -119 0 c-115 0 -120 -1 -128 -22z"/>
<path d="M2373 3183 c7 -11 866 -2341 869 -2356 2 -7 5 503 8 1133 l5 1145
410 0 c355 -1 419 -3 479 -18 111 -28 191 -72 266 -146 108 -107 156 -225 166
-411 16 -278 -91 -498 -290 -595 -105 -51 -173 -66 -333 -72 -79 -3 -143 -8
-143 -10 0 -3 151 -246 336 -541 185 -295 422 -673 526 -839 l189 -303 209 0
209 0 -118 188 c-706 1121 -881 1403 -877 1411 3 4 32 11 66 14 216 23 417
163 506 352 56 119 69 182 68 350 0 130 -3 159 -23 215 -71 204 -231 362 -437
434 -163 57 -144 56 -1159 56 -515 0 -934 -3 -932 -7z"/>
</g>
</svg>
